<mxfile host="65bd71144e">
    <diagram id="LjMVgWfSdbgCrIofjb9K" name="Page-1">
        <mxGraphModel dx="734" dy="430" grid="1" gridSize="10" guides="1" tooltips="1" connect="1" arrows="1" fold="1" page="1" pageScale="1" pageWidth="827" pageHeight="1169" math="0" shadow="0">
            <root>
                <mxCell id="0"/>
                <mxCell id="1" parent="0"/>
                <mxCell id="2" value="Professor" style="shape=umlActor;verticalLabelPosition=bottom;verticalAlign=top;html=1;fontFamily=&quot;Times New Roman&quot;, SimSun, sans-serif;" vertex="1" parent="1">
                    <mxGeometry x="100" y="210" width="30" height="60" as="geometry"/>
                </mxCell>
                <mxCell id="3" value="Student" style="shape=umlActor;verticalLabelPosition=bottom;verticalAlign=top;html=1;fontFamily=&quot;Times New Roman&quot;, SimSun, sans-serif;" vertex="1" parent="1">
                    <mxGeometry x="100" y="390" width="30" height="60" as="geometry"/>
                </mxCell>
                <mxCell id="4" value="教授端界面" style="shape=umlBoundary;whiteSpace=wrap;html=1;fontFamily=&quot;Times New Roman&quot;, SimSun, sans-serif;" vertex="1" parent="1">
                    <mxGeometry x="250" y="200" width="100" height="80" as="geometry"/>
                </mxCell>
                <mxCell id="5" value="学生端界面" style="shape=umlBoundary;whiteSpace=wrap;html=1;fontFamily=&quot;Times New Roman&quot;, SimSun, sans-serif;" vertex="1" parent="1">
                    <mxGeometry x="250" y="380" width="100" height="80" as="geometry"/>
                </mxCell>
                <mxCell id="7" value="填写意愿" style="ellipse;shape=umlControl;whiteSpace=wrap;html=1;fontFamily=&quot;Times New Roman&quot;, SimSun, sans-serif;" vertex="1" parent="1">
                    <mxGeometry x="430" y="380" width="70" height="80" as="geometry"/>
                </mxCell>
                <mxCell id="9" value="停止填报" style="ellipse;shape=umlControl;whiteSpace=wrap;html=1;fontFamily=&quot;Times New Roman&quot;, SimSun, sans-serif;" vertex="1" parent="1">
                    <mxGeometry x="430" y="140" width="70" height="80" as="geometry"/>
                </mxCell>
                <mxCell id="10" value="修改&lt;br&gt;分配结果" style="ellipse;shape=umlControl;whiteSpace=wrap;html=1;fontFamily=&quot;Times New Roman&quot;, SimSun, sans-serif;" vertex="1" parent="1">
                    <mxGeometry x="430" y="250" width="70" height="80" as="geometry"/>
                </mxCell>
                <mxCell id="11" value="" style="endArrow=none;html=1;fontFamily=&quot;Times New Roman&quot;, SimSun, sans-serif;" edge="1" parent="1" source="4" target="9">
                    <mxGeometry width="50" height="50" relative="1" as="geometry">
                        <mxPoint x="390" y="260" as="sourcePoint"/>
                        <mxPoint x="440" y="210" as="targetPoint"/>
                    </mxGeometry>
                </mxCell>
                <mxCell id="12" value="" style="endArrow=none;html=1;fontFamily=&quot;Times New Roman&quot;, SimSun, sans-serif;" edge="1" parent="1" source="4" target="10">
                    <mxGeometry width="50" height="50" relative="1" as="geometry">
                        <mxPoint x="360" y="350" as="sourcePoint"/>
                        <mxPoint x="410" y="300" as="targetPoint"/>
                    </mxGeometry>
                </mxCell>
                <mxCell id="14" value="" style="endArrow=none;html=1;fontFamily=&quot;Times New Roman&quot;, SimSun, sans-serif;" edge="1" parent="1" source="5" target="7">
                    <mxGeometry width="50" height="50" relative="1" as="geometry">
                        <mxPoint x="340" y="517.75" as="sourcePoint"/>
                        <mxPoint x="390" y="467.75" as="targetPoint"/>
                    </mxGeometry>
                </mxCell>
                <mxCell id="16" value="" style="endArrow=none;html=1;fontFamily=&quot;Times New Roman&quot;, SimSun, sans-serif;" edge="1" parent="1" source="2" target="4">
                    <mxGeometry width="50" height="50" relative="1" as="geometry">
                        <mxPoint x="170" y="260" as="sourcePoint"/>
                        <mxPoint x="310" y="330" as="targetPoint"/>
                    </mxGeometry>
                </mxCell>
                <mxCell id="17" value="" style="endArrow=none;html=1;fontFamily=&quot;Times New Roman&quot;, SimSun, sans-serif;" edge="1" parent="1" source="3" target="5">
                    <mxGeometry width="50" height="50" relative="1" as="geometry">
                        <mxPoint x="150" y="437.75" as="sourcePoint"/>
                        <mxPoint x="210" y="347.75" as="targetPoint"/>
                    </mxGeometry>
                </mxCell>
                <mxCell id="18" value="分组情况" style="ellipse;shape=umlEntity;whiteSpace=wrap;html=1;fontFamily=&quot;Times New Roman&quot;, SimSun, sans-serif;" vertex="1" parent="1">
                    <mxGeometry x="700" y="250" width="80" height="80" as="geometry"/>
                </mxCell>
                <mxCell id="19" value="意愿情况" style="ellipse;shape=umlEntity;whiteSpace=wrap;html=1;fontFamily=&quot;Times New Roman&quot;, SimSun, sans-serif;" vertex="1" parent="1">
                    <mxGeometry x="700" y="380" width="80" height="80" as="geometry"/>
                </mxCell>
                <mxCell id="20" value="分配结果" style="ellipse;shape=umlEntity;whiteSpace=wrap;html=1;fontFamily=&quot;Times New Roman&quot;, SimSun, sans-serif;" vertex="1" parent="1">
                    <mxGeometry x="700" y="140" width="80" height="80" as="geometry"/>
                </mxCell>
                <mxCell id="21" value="自动分配" style="ellipse;shape=umlControl;whiteSpace=wrap;html=1;fontFamily=&quot;Times New Roman&quot;, SimSun, sans-serif;" vertex="1" parent="1">
                    <mxGeometry x="550" y="140" width="70" height="80" as="geometry"/>
                </mxCell>
                <mxCell id="22" value="" style="endArrow=none;html=1;" edge="1" parent="1" source="9" target="21">
                    <mxGeometry width="50" height="50" relative="1" as="geometry">
                        <mxPoint x="550" y="350" as="sourcePoint"/>
                        <mxPoint x="600" y="300" as="targetPoint"/>
                    </mxGeometry>
                </mxCell>
                <mxCell id="23" value="" style="endArrow=none;html=1;" edge="1" parent="1" source="21" target="19">
                    <mxGeometry width="50" height="50" relative="1" as="geometry">
                        <mxPoint x="640" y="310" as="sourcePoint"/>
                        <mxPoint x="690" y="260" as="targetPoint"/>
                    </mxGeometry>
                </mxCell>
                <mxCell id="24" value="" style="endArrow=none;html=1;" edge="1" parent="1" source="21" target="20">
                    <mxGeometry width="50" height="50" relative="1" as="geometry">
                        <mxPoint x="610" y="350" as="sourcePoint"/>
                        <mxPoint x="660" y="300" as="targetPoint"/>
                    </mxGeometry>
                </mxCell>
                <mxCell id="25" value="" style="endArrow=none;html=1;" edge="1" parent="1" source="21" target="18">
                    <mxGeometry width="50" height="50" relative="1" as="geometry">
                        <mxPoint x="560" y="370" as="sourcePoint"/>
                        <mxPoint x="610" y="320" as="targetPoint"/>
                    </mxGeometry>
                </mxCell>
                <mxCell id="26" value="" style="endArrow=none;html=1;" edge="1" parent="1" source="10" target="20">
                    <mxGeometry width="50" height="50" relative="1" as="geometry">
                        <mxPoint x="540" y="350" as="sourcePoint"/>
                        <mxPoint x="590" y="300" as="targetPoint"/>
                    </mxGeometry>
                </mxCell>
                <mxCell id="27" value="" style="endArrow=none;html=1;" edge="1" parent="1" source="7" target="19">
                    <mxGeometry width="50" height="50" relative="1" as="geometry">
                        <mxPoint x="540" y="350" as="sourcePoint"/>
                        <mxPoint x="590" y="300" as="targetPoint"/>
                    </mxGeometry>
                </mxCell>
            </root>
        </mxGraphModel>
    </diagram>
</mxfile>